<svg focusable="false" role="img" xmlns="http://www.w3.org/2000/svg" xmlns:xlink="http://www.w3.org/1999/xlink" style="display:none">
  <defs>

    <!--"language"-->
    <symbol id="icon-language" viewBox="0 0 20 20">
      <path d="M10 20C8.63333 20 7.34167 19.7373 6.125 19.212C4.90833 18.6867 3.84567 17.97 2.937 17.062C2.02833 16.154 1.31167 15.0913 0.787001 13.874C0.262334 12.6567 -0.000332784 11.365 -0.000999451 9.999C-0.000999451 8.61567 0.261667 7.31967 0.787001 6.111C1.31233 4.90233 2.029 3.844 2.937 2.936C3.845 2.028 4.90767 1.31133 6.125 0.786001C7.34233 0.260668 8.634 -0.0019989 10 -0.0019989C11.3833 -0.0019989 12.6793 0.260668 13.888 0.786001C15.0967 1.31133 16.155 2.028 17.063 2.936C17.971 3.844 18.6877 4.90233 19.213 6.111C19.7383 7.31967 20.001 8.61567 20.001 9.999C20.001 11.3657 19.7383 12.6573 19.213 13.874C18.6877 15.0907 17.971 16.1533 17.063 17.062C16.155 17.9707 15.0967 18.6873 13.888 19.212C12.6793 19.7367 11.3833 19.9993 10 20ZM10 17.95C10.4333 17.35 10.8083 16.725 11.125 16.075C11.4417 15.425 11.7 14.7333 11.9 14H8.1C8.3 14.7333 8.55833 15.425 8.875 16.075C9.19167 16.725 9.56667 17.35 10 17.95ZM7.4 17.55C7.1 17 6.83733 16.429 6.612 15.837C6.38667 15.245 6.199 14.6323 6.049 13.999H3.099C3.58233 14.8323 4.18633 15.5573 4.911 16.174C5.63567 16.7907 6.46467 17.249 7.398 17.549L7.4 17.55ZM12.6 17.55C13.5333 17.25 14.3623 16.7917 15.087 16.175C15.8117 15.5583 16.4157 14.8333 16.899 14H13.949C13.799 14.6333 13.6113 15.246 13.386 15.838C13.1607 16.43 12.8983 17.001 12.599 17.551L12.6 17.55ZM2.25 12H5.65C5.6 11.6667 5.56267 11.3377 5.538 11.013C5.51333 10.6883 5.50067 10.3507 5.5 10C5.49933 9.64933 5.512 9.312 5.538 8.988C5.564 8.664 5.60133 8.335 5.65 8.001H2.25C2.16667 8.33433 2.104 8.66333 2.062 8.988C2.02 9.31267 1.999 9.65 1.999 10C1.999 10.35 2.02 10.6877 2.062 11.013C2.104 11.3383 2.16667 11.6673 2.25 12ZM7.65 12H12.35C12.4 11.6667 12.4377 11.3377 12.463 11.013C12.4883 10.6883 12.5007 10.3507 12.5 10C12.4993 9.64933 12.487 9.312 12.463 8.988C12.439 8.664 12.4013 8.335 12.35 8.001H7.65C7.6 8.33433 7.56233 8.66333 7.537 8.988C7.51167 9.31267 7.49933 9.65 7.5 10C7.50067 10.35 7.513 10.6877 7.537 11.013C7.561 11.3383 7.59867 11.6673 7.65 12ZM14.35 12H17.75C17.8333 11.6667 17.896 11.3377 17.938 11.013C17.98 10.6883 18.001 10.3507 18.001 10C18.001 9.64933 17.98 9.312 17.938 8.988C17.896 8.664 17.8333 8.335 17.75 8.001H14.35C14.4 8.33433 14.4373 8.66333 14.462 8.988C14.4867 9.31267 14.4993 9.65 14.5 10C14.5007 10.35 14.488 10.6877 14.462 11.013C14.436 11.3383 14.3987 11.6673 14.35 12ZM13.95 6H16.9C16.4167 5.16667 15.8127 4.44167 15.088 3.825C14.3633 3.20833 13.5343 2.75 12.601 2.45C12.901 3 13.1633 3.571 13.388 4.163C13.6127 4.755 13.8003 5.36733 13.951 6H13.95ZM8.1 6H11.9C11.7 5.26667 11.4417 4.575 11.125 3.925C10.8083 3.275 10.4333 2.65 10 2.05C9.56667 2.65 9.19167 3.275 8.875 3.925C8.55833 4.575 8.3 5.26667 8.1 6ZM3.1 6H6.05C6.2 5.36667 6.38767 4.754 6.613 4.162C6.83833 3.57 7.101 2.999 7.401 2.449C6.46767 2.749 5.63867 3.20733 4.914 3.824C4.18933 4.44067 3.58533 5.16567 3.102 5.999L3.1 6Z"/>
    </symbol>

    <!--"person"-->
    <symbol id="icon-person" viewBox="0 0 16 16">
      <path d="M8 8C6.9 8 5.95833 7.60833 5.175 6.825C4.39167 6.04167 4 5.1 4 4C4 2.9 4.39167 1.95833 5.175 1.175C5.95833 0.391667 6.9 0 8 0C9.1 0 10.0417 0.391667 10.825 1.175C11.6083 1.95833 12 2.9 12 4C12 5.1 11.6083 6.04167 10.825 6.825C10.0417 7.60833 9.1 8 8 8ZM0 16V13.2C0 12.6333 0.146 12.1123 0.438 11.637C0.73 11.1617 1.11767 10.7993 1.601 10.55C2.63433 10.0333 3.68433 9.64567 4.751 9.387C5.81767 9.12833 6.901 8.99933 8.001 9C9.101 9.00067 10.1843 9.12967 11.251 9.387C12.3177 9.64433 13.3677 10.032 14.401 10.55C14.8843 10.8 15.272 11.1623 15.564 11.637C15.856 12.1117 16.002 12.6327 16.002 13.2V16H0.00199986H0ZM2 14H14V13.2C14 13.0167 13.954 12.85 13.862 12.7C13.77 12.55 13.649 12.4333 13.499 12.35C12.599 11.9 11.6907 11.5627 10.774 11.338C9.85733 11.1133 8.93233 11.0007 7.999 11C7.06567 10.9993 6.14067 11.112 5.224 11.338C4.30733 11.564 3.399 11.9013 2.499 12.35C2.349 12.4333 2.228 12.55 2.136 12.7C2.044 12.85 1.998 13.0167 1.998 13.2V14H2ZM8 6C8.55 6 9.021 5.804 9.413 5.412C9.805 5.02 10.001 4.549 10.001 3.999C10.001 3.449 9.805 2.978 9.413 2.586C9.021 2.194 8.55 1.998 8 1.998C7.45 1.998 6.979 2.194 6.587 2.586C6.195 2.978 5.999 3.449 5.999 3.999C5.999 4.549 6.195 5.02 6.587 5.412C6.979 5.804 7.45 6 8 6Z"/>
    </symbol>

  </defs>
</svg>


